<svg xmlns="http://www.w3.org/2000/svg" width="258.106" height="285.861" viewBox="0 0 258.106 285.861"><defs><style>.a,.o{fill:none;}.a{stroke:#fff;stroke-dasharray:4 5;}.b{fill:#ffb8b8;}.c{fill:#2f2e41;}.d{fill:#d5afb5;}.e{fill:#6c63ff;}.f{fill:#a0616a;}.g{fill:#7e54c8;}.h{fill:#e6e6e6;}.i{fill:#fff;}.j{fill:#3f3d56;}.k{fill:#ccc;}.l{fill:#ff6393;}.m{fill:#ececec;}.n{stroke:none;}</style></defs><g transform="translate(-352.504 -205)"><g class="a" transform="translate(362 205)"><circle class="n" cx="109.5" cy="109.5" r="109.5"/><circle class="o" cx="109.5" cy="109.5" r="109"/></g><g transform="translate(352.504 233.003)"><path class="b" d="M611.97,645.249l-4.307,1.423-7.54-15.933,6.356-2.1Z" transform="translate(-378.106 -396.071)"/><path class="c" d="M5.507,0h8.747V5.507H0A5.507,5.507,0,0,1,5.507,0Z" transform="translate(220.847 252.116) rotate(-18.29)"/><path class="b" d="M543.952,654.435h-4.536l-2.158-17.494h6.694Z" transform="translate(-338.498 -401.301)"/><path class="c" d="M524.954,680.725H533.7v5.507H519.447A5.508,5.508,0,0,1,524.954,680.725Z" transform="translate(-327.275 -428.888)"/><path class="c" d="M727.953,604.876l-.231,1.023c-3.125,13.84-4.238,33.977-3.3,48.134l.721,10.936a1.48,1.48,0,0,0,1.477,1.382h5.438a1.48,1.48,0,0,0,1.47-1.307l4.22-35.873a1.48,1.48,0,0,1,2.881-.273l10.938,32.417a1.48,1.48,0,0,0,1.316,1.031l8.306.536a1.48,1.48,0,0,0,1.508-1.919l-5-13.747c-3.863-12.337-5.94-31.083-6.166-44.009h0a1.48,1.48,0,0,0-1.62-1.447l-20.648,1.967A1.48,1.48,0,0,0,727.953,604.876Z" transform="translate(-526.691 -416.684)"/><circle class="d" cx="9.086" cy="9.086" r="9.086" transform="translate(204.266 112.553)"/><path class="e" d="M738.468,521.14h0a53.62,53.62,0,0,1-5.418-.286,2.227,2.227,0,0,1-1.978-2.4l3.1-29.932c.747-8.466,1.9-16.639,7.741-23.56a2.226,2.226,0,0,1,1.6-.787l.22-.008c2.3-.1,3.365-.012,3.664.287L749,466.035c9.8,7.246,10.2,53.148,7.791,52.244a31.336,31.336,0,0,0-6.431.266C747.215,520.689,742.157,521.14,738.468,521.14Z" transform="translate(-531.08 -329.971)"/><path class="f" d="M654.088,557.751A3.72,3.72,0,0,1,659.6,556.3l10.753-7.692.261,6.865-10.25,6.252a3.74,3.74,0,0,1-6.279-3.97Z" transform="translate(-482.351 -383.197)"/><path class="e" d="M677.375,525l-3.642-6.411,33.173-23.919a6.712,6.712,0,1,1,7.012,11.4Z" transform="translate(-494.959 -348.418)"/><path class="g" d="M750.538,415.955a1.8,1.8,0,0,0,2.348.15,15.954,15.954,0,0,0,5.134-5.974,9.651,9.651,0,0,0-.12-8.775c-1.3-2.219-3.594-3.651-5.881-4.826a10.459,10.459,0,0,0-2.839-1.094,4.046,4.046,0,0,0-2.942.475,2.541,2.541,0,0,0-1.147,2.623,9.562,9.562,0,0,0-4.081-2.74,5.278,5.278,0,0,0-3.117-.226,5.11,5.11,0,0,0-3.09,3.094,6.186,6.186,0,0,0-.467,3.376,4.124,4.124,0,0,0,1.8,2.824,5.564,5.564,0,0,0,4.108.386,34.77,34.77,0,0,1,4.116-.964,4.257,4.257,0,0,1,3.823,1.339,5.837,5.837,0,0,1,.892,2.808l.7,5.12a6.244,6.244,0,0,0,.559,2.139A1.229,1.229,0,0,0,750.538,415.955Z" transform="translate(-533.103 -286.633)"/><path class="d" d="M821.055,593.041a3.72,3.72,0,0,1-.407-5.69l-5.567-11.991,6.794,1.016,4.244,11.231a3.74,3.74,0,0,1-5.065,5.434Z" transform="translate(-584.015 -400.054)"/><path class="e" d="M787.478,520.314l-6.411,3.642-23.919-33.173a6.712,6.712,0,1,1,11.4-7.012Z" transform="translate(-546.716 -340.064)"/><path class="h" d="M464.945,162.647h-1.414v-38.73A22.417,22.417,0,0,0,441.114,101.5H359.056a22.417,22.417,0,0,0-22.417,22.417V336.4a22.417,22.417,0,0,0,22.417,22.417h82.058A22.417,22.417,0,0,0,463.531,336.4V190.216h1.414Z" transform="translate(-282.574 -101.5)"/><path class="i" d="M452.552,117.258H441.842a7.953,7.953,0,0,1-7.365,10.957h-47.01a7.953,7.953,0,0,1-7.364-10.957h-10A16.741,16.741,0,0,0,353.358,134V346.171A16.741,16.741,0,0,0,370.1,362.912h82.453a16.741,16.741,0,0,0,16.741-16.741h0V134a16.741,16.741,0,0,0-16.74-16.74Z" transform="translate(-293.108 -111.428)"/><path class="j" d="M443.892,324.19a38.845,38.845,0,1,1,38.845-38.845,38.845,38.845,0,0,1-38.845,38.845Zm0-76.95A38.105,38.105,0,1,0,482,285.345a38.105,38.105,0,0,0-38.105-38.105Z" transform="translate(-325.674 -192.857)"/><path class="h" d="M444.89,236.3a13.427,13.427,0,0,0,4.818-11.575,10.855,10.855,0,0,0-8.07-9.215c-4.258-.918-9.111,1.623-10.4,5.782-.712-8.019-1.532-16.373-5.795-23.2a24.572,24.572,0,0,0-17.792-11.4,22.046,22.046,0,0,0-19.394,7.917,20.009,20.009,0,0,0-2.461,20.6c2.332,4.837,6.627,8.437,11.128,11.365,14.359,9.343,32.171,12.5,49.12,10.006Z" transform="translate(-312.405 -155.095)"/><path class="i" d="M412.843,193.012a118.505,118.505,0,0,1,34.82,47.083c.332.814-.989,1.168-1.318.363a117.186,117.186,0,0,0-34.469-46.48c-.682-.556.29-1.517.966-.966Z" transform="translate(-329.831 -159.053)"/><circle class="j" cx="4.069" cy="4.069" r="4.069" transform="translate(80.977 161.3)"/><path class="k" d="M509.462,546.419H457.669a2.96,2.96,0,0,1,0-5.919h51.794a2.96,2.96,0,0,1,0,5.919Z" transform="translate(-356.964 -378.09)"/><path class="l" d="M492.973,546.394H457.029a3,3,0,1,1,0-5.991h35.944a3,3,0,1,1,0,5.991Z" transform="translate(-356.538 -378.029)"/><circle class="j" cx="4.069" cy="4.069" r="4.069" transform="translate(80.977 179.058)"/><path class="k" d="M509.462,594.419H457.669a2.96,2.96,0,0,1,0-5.919h51.794a2.96,2.96,0,0,1,0,5.919Z" transform="translate(-356.964 -408.332)"/><circle class="j" cx="4.069" cy="4.069" r="4.069" transform="translate(80.977 196.816)"/><path class="k" d="M509.462,642.419H457.669a2.96,2.96,0,0,1,0-5.919h51.794a2.96,2.96,0,0,1,0,5.919Z" transform="translate(-356.964 -438.575)"/><path class="e" d="M481.134,594.394H457.029a3,3,0,1,1,0-5.991h24.105a3,3,0,1,1,0,5.991Z" transform="translate(-356.538 -408.271)"/><path class="l" d="M502.592,642.394H457.029a3,3,0,0,1,0-5.991h45.563a3,3,0,1,1,0,5.991Z" transform="translate(-356.538 -438.513)"/><path class="j" d="M556.981,306.749H551.9V291.724a1.667,1.667,0,0,1,1.665-1.665h1.755a1.667,1.667,0,0,1,1.665,1.665Z" transform="translate(-418.196 -220.301)"/><path class="j" d="M490.9,331.672H442.3l-.174-27.394a3.16,3.16,0,0,1,.95-2.273l12.21-11.893a3.131,3.131,0,0,1,2.165-.892l20.435-.187a3.165,3.165,0,0,1,2.436,1.121l0,0,9.706,11.9a3.894,3.894,0,0,1,.874,2.455Z" transform="translate(-349.033 -219.655)"/><path class="l" d="M529.49,334.461H503.37V309.91a3.148,3.148,0,0,1,.752-2.041l11.349-13.305h0a3.139,3.139,0,0,1,2.392-1.1h.012a3.14,3.14,0,0,1,2.4,1.122l8.482,10.1a3.149,3.149,0,0,1,.737,2.023Z" transform="translate(-387.622 -222.444)"/><path class="i" d="M536.013,370.251h-3.779a.926.926,0,0,1-.925-.925v-3.169a.926.926,0,0,1,.925-.925h3.779a.926.926,0,0,1,.925.925v3.168A.926.926,0,0,1,536.013,370.251Z" transform="translate(-405.225 -267.664)"/><path class="i" d="M536.013,348.431h-3.779a.926.926,0,0,1-.925-.925v-3.095a.926.926,0,0,1,.925-.925h3.779a.926.926,0,0,1,.925.925v3.095A.926.926,0,0,1,536.013,348.431Z" transform="translate(-405.225 -253.963)"/><path class="i" d="M472.841,366.918h-3.779a.926.926,0,0,1-.925-.925v-3.168a.926.926,0,0,1,.925-.925h3.779a.926.926,0,0,1,.925.925v3.168A.926.926,0,0,1,472.841,366.918Z" transform="translate(-365.424 -265.564)"/><path class="i" d="M472.841,345.1h-3.779a.926.926,0,0,1-.925-.925v-3.095a.926.926,0,0,1,.925-.925h3.779a.926.926,0,0,1,.925.925v3.095A.926.926,0,0,1,472.841,345.1Z" transform="translate(-365.424 -251.862)"/><path class="j" d="M486.177,403.892H420.065a.37.37,0,1,1,0-.74h66.112a.37.37,0,1,1,0,.74Z" transform="translate(-334.903 -291.555)"/><path class="m" d="M448.291,797.24H190.815a.375.375,0,0,1,0-.74H448.291a.375.375,0,0,1,0,.74Z" transform="translate(-190.5 -539.382)"/></g></g></svg>